<svg xmlns="http://www.w3.org/2000/svg" xmlns:xlink="http://www.w3.org/1999/xlink" version="1.1" width="256" height="256" viewBox="0 0 256 256" xml:space="preserve">
<desc>Created with Fabric.js 1.7.22</desc>
<defs>
</defs>
<g transform="translate(128 128) scale(7.21 7.21)" style="">
	<g style="stroke: none; stroke-width: 0; stroke-dasharray: none; stroke-linecap: butt; stroke-linejoin: miter; stroke-miterlimit: 10; fill: none; fill-rule: nonzero; opacity: 1;" transform="translate(-17.55 -17.55) scale(0.39 0.39)" >
	<path d="M 19.917 42.174 L 19.917 42.174 c -5.754 0 -10.461 -4.707 -10.461 -10.461 v -3.752 c 0 -5.754 4.707 -10.461 10.461 -10.461 h 0 c 5.754 0 10.461 4.707 10.461 10.461 v 3.752 C 30.378 37.466 25.67 42.174 19.917 42.174 z" style="stroke: none; stroke-width: 1; stroke-dasharray: none; stroke-linecap: butt; stroke-linejoin: miter; stroke-miterlimit: 10; fill: rgb(255,255,255); fill-rule: nonzero; opacity: 1;" transform=" matrix(1 0 0 1 0 0) " stroke-linecap="round" />
	<path d="M 70.083 42.174 L 70.083 42.174 c -5.754 0 -10.461 -4.707 -10.461 -10.461 v -3.752 c 0 -5.754 4.707 -10.461 10.461 -10.461 h 0 c 5.754 0 10.461 4.707 10.461 10.461 v 3.752 C 80.544 37.466 75.837 42.174 70.083 42.174 z" style="stroke: none; stroke-width: 1; stroke-dasharray: none; stroke-linecap: butt; stroke-linejoin: miter; stroke-miterlimit: 10; fill: rgb(255,255,255); fill-rule: nonzero; opacity: 1;" transform=" matrix(1 0 0 1 0 0) " stroke-linecap="round" />
	<path d="M 59.532 60.227 l -3.804 -3.804 c -0.038 -0.038 -0.085 -0.055 -0.128 -0.085 l -6.837 -6.837 c -0.344 -0.344 -0.902 -0.344 -1.246 0 l -3.804 3.804 c -0.344 0.344 -0.344 0.902 0 1.246 l 2.749 2.749 H 24.604 c -0.633 0 -1.146 0.513 -1.146 1.146 v 4.849 c 0 0.633 0.513 1.146 1.146 1.146 h 21.858 l -2.749 2.749 c -0.344 0.344 -0.344 0.902 0 1.246 l 3.804 3.804 c 0.344 0.344 0.902 0.344 1.246 0 l 6.837 -6.837 c 0.042 -0.029 0.09 -0.047 0.128 -0.085 l 3.804 -3.804 c 0.178 -0.178 0.26 -0.412 0.254 -0.645 C 59.791 60.639 59.709 60.405 59.532 60.227 z" style="stroke: none; stroke-width: 1; stroke-dasharray: none; stroke-linecap: butt; stroke-linejoin: miter; stroke-miterlimit: 10; fill: rgb(18,20,18); fill-rule: nonzero; opacity: 1;" transform=" matrix(1 0 0 1 0 0) " stroke-linecap="round" />
	<path d="M 75.974 43.611 c -1.77 0.916 -3.77 1.444 -5.89 1.444 s -4.121 -0.527 -5.891 -1.444 c -3.829 0.571 -7.23 2.483 -9.728 5.228 l 4.052 4.051 c 0.124 0.1 0.258 0.216 0.393 0.352 l 3.804 3.804 c 1.009 1.008 1.578 2.396 1.572 3.826 c 0.006 1.43 -0.563 2.819 -1.572 3.827 L 54.88 72.5 h 33.32 c 0.99 0 1.801 -0.81 1.801 -1.801 V 59.878 C 90 51.654 83.883 44.791 75.974 43.611 z" style="stroke: none; stroke-width: 1; stroke-dasharray: none; stroke-linecap: butt; stroke-linejoin: miter; stroke-miterlimit: 10; fill: rgb(255,255,255); fill-rule: nonzero; opacity: 1;" transform=" matrix(1 0 0 1 0 0) " stroke-linecap="round" />
	<path d="M 39.077 68.942 H 24.604 c -3.113 0 -5.646 -2.533 -5.646 -5.646 v -4.849 c 0 -3.113 2.533 -5.646 5.646 -5.646 h 13.614 c -2.323 -4.83 -6.935 -8.373 -12.41 -9.19 c -1.77 0.916 -3.77 1.444 -5.891 1.444 s -4.121 -0.527 -5.89 -1.444 C 6.117 44.791 0 51.654 0 59.878 v 10.821 C 0 71.69 0.81 72.5 1.801 72.5 h 36.232 c 0.979 0 1.779 -0.793 1.797 -1.768 C 39.47 70.175 39.211 69.571 39.077 68.942 z" style="stroke: none; stroke-width: 1; stroke-dasharray: none; stroke-linecap: butt; stroke-linejoin: miter; stroke-miterlimit: 10; fill: rgb(255,255,255); fill-rule: nonzero; opacity: 1;" transform=" matrix(1 0 0 1 0 0) " stroke-linecap="round" />
</g>
</g>
</svg>